External Loads File
version=1
nRows=70
nColumns=13
Range=5.000000e-03-10 seconds
endheader
time 	forceRightX 	forceRightY 	forceRightZ 	pointRightX 	pointRightY 	pointRightZ 	forceLeftX 	forceLeftY 	forceLeftZ 	pointLeftX 	pointLeftY 	pointLeftZ 		
5.005000 107.957626 76.986943 -0.000000 0.040708 0.368987 -0.103917 -277.908584 612.328972 -0.000000 0.308227 0.267607 -0.351012
5.010000 106.778512 75.140189 -0.000000 0.044258 0.379039 -0.103984 -267.249280 633.003060 -0.000000 0.305249 0.257846 -0.350674
5.015000 104.117127 72.075429 -0.000000 0.049097 0.388854 -0.103409 -252.794738 652.621173 -0.000000 0.301665 0.248242 -0.350329
5.020000 99.827876 68.010439 -0.000000 0.053580 0.398464 -0.103588 -236.182721 670.304086 -0.000000 0.297548 0.238865 -0.350077
5.025000 94.046997 62.740455 -0.000000 0.058625 0.407810 -0.104057 -216.668935 686.182764 -0.000000 0.292833 0.229656 -0.349872
5.030000 86.830709 56.180423 -0.000000 0.064813 0.416902 -0.103956 -194.009594 700.155421 -0.000000 0.287613 0.220759 -0.349693
5.035000 78.014606 48.641150 -0.000000 0.070642 0.425630 -0.104239 -170.660721 711.442838 -0.000000 0.281846 0.212205 -0.349543
5.040000 67.768197 40.056855 -0.000000 0.077381 0.434041 -0.104438 -145.190789 720.412583 -0.000000 0.275667 0.203946 -0.349517
5.045000 56.102439 30.838526 -0.000000 0.084223 0.442278 -0.104747 -119.188571 726.661095 -0.000000 0.269053 0.196134 -0.349543
5.050000 43.270330 21.260120 -0.000000 0.092411 0.449649 -0.104307 -91.665797 730.267781 -0.000000 0.262007 0.188686 -0.349534
5.055000 29.498739 11.903247 -0.000000 0.099623 0.456892 -0.105225 -66.138324 730.689349 -0.000000 0.254597 0.181735 -0.349273
5.060000 15.295872 2.953789 -0.000000 0.107567 0.463794 -0.105230 -40.184326 728.115006 -0.000000 0.246759 0.175236 -0.349701
5.065000 1.122067 -5.230660 -0.000000 0.115907 0.470238 -0.105644 -14.896695 722.203237 -0.000000 0.238670 0.169259 -0.349807
5.070000 -12.520824 -12.412677 -0.000000 0.124379 0.476031 -0.105894 8.621780 712.697601 -0.000000 0.230405 0.163866 -0.349677
5.075000 -25.200750 -18.438546 -0.000000 0.132989 0.481225 -0.106186 30.691427 699.436775 -0.000000 0.221795 0.159072 -0.349714
5.080000 -36.585956 -23.203818 -0.000000 0.141742 0.485924 -0.106295 51.141411 682.328880 -0.000000 0.212938 0.154893 -0.349827
5.085000 -46.420299 -26.687923 -0.000000 0.150392 0.489899 -0.106593 69.428919 661.465469 -0.000000 0.203851 0.151342 -0.349762
5.090000 -54.590350 -28.850577 -0.000000 0.159277 0.493440 -0.106885 86.260126 636.983716 -0.000000 0.194561 0.148396 -0.349767
5.095000 -61.029317 -29.804739 -0.000000 0.168041 0.496213 -0.107053 100.771168 609.323262 -0.000000 0.185136 0.146195 -0.349693
5.100000 -65.835218 -29.562835 -0.000000 0.176807 0.498402 -0.107075 113.407671 578.849925 -0.000000 0.175549 0.144590 -0.349569
5.105000 -69.148400 -28.187122 -0.000000 0.185357 0.499885 -0.107280 123.672815 546.139785 -0.000000 0.165927 0.143762 -0.349416
5.110000 -71.218424 -25.530450 -0.000000 0.194192 0.500734 -0.106999 132.294725 511.567047 -0.000000 0.156305 0.143489 -0.349127
5.115000 -72.221452 -21.630381 -0.000000 0.202601 0.500866 -0.106937 138.191263 475.965928 -0.000000 0.146800 0.143953 -0.348877
5.120000 -72.416038 -16.341524 -0.000000 0.210695 0.500315 -0.106786 141.595465 439.859309 -0.000000 0.137502 0.145079 -0.348498
5.125000 -72.069730 -9.516669 -0.000000 0.218639 0.499094 -0.106525 142.911588 403.628655 -0.000000 0.128422 0.146883 -0.348162
5.130000 -71.446129 -1.158369 -0.000000 0.226273 0.497137 -0.106315 142.229149 367.676612 -0.000000 0.119522 0.149241 -0.347861
5.135000 -70.853374 8.584710 -0.000000 0.233603 0.494441 -0.106029 139.564227 332.399478 -0.000000 0.111099 0.152207 -0.347404
5.140000 -70.646212 19.552628 -0.000000 0.240503 0.491105 -0.105667 135.272160 298.080558 -0.000000 0.102964 0.155790 -0.347146
5.145000 -71.143955 31.694426 -0.000000 0.247194 0.486982 -0.105312 130.028339 264.927540 -0.000000 0.094966 0.160000 -0.346478
5.150000 -72.690964 44.852756 -0.000000 0.253562 0.482250 -0.104956 123.750644 233.617730 -0.000000 0.087422 0.164819 -0.346141
5.155000 -75.575613 59.031482 -0.000000 0.259659 0.476905 -0.104634 116.844237 204.712651 -0.000000 0.080339 0.170039 -0.346294
5.160000 -79.894475 74.416994 -0.000000 0.265585 0.470750 -0.104378 110.087260 178.568467 -0.000000 0.073426 0.175824 -0.346055
5.165000 -85.834577 91.001888 -0.000000 0.271167 0.464112 -0.104207 103.644135 155.810920 -0.000000 0.066829 0.182061 -0.345867
5.170000 -93.435995 108.904936 -0.000000 0.276401 0.456995 -0.104110 97.986530 136.728470 -0.000000 0.060536 0.188704 -0.345816
5.175000 -102.570340 128.325858 -0.000000 0.281348 0.449358 -0.104281 93.606992 121.345871 -0.000000 0.054544 0.195893 -0.345659
5.180000 -113.140632 149.342404 -0.000000 0.285827 0.441120 -0.104399 90.744230 109.595308 -0.000000 0.048913 0.203508 -0.345601
5.185000 -124.688412 172.169973 -0.000000 0.290371 0.432350 -0.104351 89.730248 101.051437 -0.000000 0.043582 0.211508 -0.345493
5.190000 -137.041482 196.644785 -0.000000 0.294193 0.422955 -0.104181 90.503087 95.376045 -0.000000 0.038664 0.220049 -0.345425
5.195000 -149.454011 222.868931 -0.000000 0.297948 0.412711 -0.104138 93.169062 91.899158 -0.000000 0.034118 0.228828 -0.345314
5.200000 -162.057087 250.228296 -0.000000 0.301249 0.402515 -0.104063 97.293258 90.334721 -0.000000 0.030094 0.238036 -0.345226
5.205000 -174.216309 278.568865 -0.000000 0.304110 0.392013 -0.103968 102.660705 90.080008 -0.000000 0.026524 0.247575 -0.345087
5.210000 -185.849153 307.382462 -0.000000 0.306595 0.381387 -0.103793 108.756442 90.794196 -0.000000 0.023559 0.257218 -0.345008
5.215000 -196.048115 336.713470 -0.000000 0.308912 0.370532 -0.103753 115.280931 91.897683 -0.000000 0.021185 0.267254 -0.344935
5.220000 -204.913394 366.041030 -0.000000 0.310636 0.359508 -0.103607 121.635920 93.258264 -0.000000 0.019516 0.277359 -0.344697
5.225000 -212.039822 395.177650 -0.000000 0.312013 0.348478 -0.103561 127.422906 94.663023 -0.000000 0.018627 0.287556 -0.344634
5.230000 -216.865191 424.002261 -0.000000 0.313180 0.337416 -0.103847 132.366167 95.912821 -0.000000 0.018432 0.297807 -0.344580
5.235000 -219.041166 452.255593 -0.000000 0.313249 0.326390 -0.103511 136.243538 96.874464 -0.000000 0.018955 0.308171 -0.344534
5.240000 -218.336956 479.651716 -0.000000 0.313348 0.315356 -0.103805 138.904514 97.391991 -0.000000 0.020210 0.318346 -0.344390
5.245000 -214.445539 506.033192 -0.000000 0.312509 0.304565 -0.103021 140.303535 97.203850 -0.000000 0.022152 0.328631 -0.344442
5.250000 -207.949242 530.986642 -0.000000 0.311482 0.293707 -0.103336 140.316359 96.209207 -0.000000 0.024937 0.338365 -0.344388
5.255000 -197.481591 554.925471 -0.000000 0.309883 0.282987 -0.102876 139.241715 93.729647 -0.000000 0.028320 0.348473 -0.344415
5.260000 -184.096015 577.244066 -0.000000 0.307144 0.272552 -0.104232 136.942647 89.729908 -0.000000 0.032353 0.358407 -0.344509
5.265000 -168.267616 597.555215 -0.000000 0.304182 0.262292 -0.103333 133.375601 84.057088 -0.000000 0.036909 0.368094 -0.344619
5.270000 -150.801078 615.366086 -0.000000 0.301182 0.252175 -0.103754 128.421415 76.734952 -0.000000 0.041959 0.377471 -0.344708
5.275000 -130.833755 630.573924 -0.000000 0.297110 0.242451 -0.103633 122.148997 67.567407 -0.000000 0.047628 0.386718 -0.344787
5.280000 -109.787163 642.516223 -0.000000 0.292905 0.233024 -0.103774 114.355702 56.941122 -0.000000 0.053782 0.395723 -0.345032
5.285000 -87.744966 650.884241 -0.000000 0.288179 0.224031 -0.103882 105.058848 45.017465 -0.000000 0.060408 0.404497 -0.345195
5.290000 -64.859332 655.322826 -0.000000 0.283120 0.215455 -0.103972 94.300367 32.005969 -0.000000 0.067466 0.413279 -0.345288
5.295000 -40.895756 655.475028 -0.000000 0.277567 0.207295 -0.104014 82.158123 18.097919 -0.000000 0.075742 0.421323 -0.346350
5.300000 -19.126928 650.813480 -0.000000 0.271614 0.199451 -0.103920 68.696123 3.918021 -0.000000 0.083303 0.428862 -0.346291
5.305000 3.223496 641.205890 -0.000000 0.265240 0.191996 -0.103803 54.204668 -10.668532 -0.000000 0.091455 0.436537 -0.346380
5.310000 22.125333 626.461677 -0.000000 0.258529 0.185043 -0.103637 39.011574 -25.119947 -0.000000 0.098902 0.443671 -0.345763
5.315000 41.026862 606.582082 -0.000000 0.251443 0.178578 -0.103416 23.344410 -39.493745 -0.000000 0.107450 0.450417 -0.345785
5.320000 57.343252 582.021992 -0.000000 0.244102 0.172762 -0.103279 7.627164 -53.348866 -0.000000 0.116174 0.456488 -0.345796
5.325000 71.269602 553.548569 -0.000000 0.236380 0.167590 -0.103104 -7.780363 -66.377594 -0.000000 0.124819 0.462443 -0.345940
5.330000 82.366901 522.326965 -0.000000 0.228334 0.163312 -0.102898 -22.440386 -78.220668 -0.000000 0.133332 0.467887 -0.345932
5.335000 92.222471 489.387114 -0.000000 0.219879 0.158979 -0.102698 -36.217155 -88.421653 -0.000000 0.142175 0.472830 -0.345782
5.340000 100.651104 455.949022 -0.000000 0.211057 0.155599 -0.102502 -48.777515 -96.557533 -0.000000 0.151315 0.477380 -0.345790
5.345000 107.364610 423.060070 -0.000000 0.201926 0.152795 -0.102376 -59.731262 -102.311952 -0.000000 0.160289 0.481163 -0.345847
5.350000 112.887746 391.173043 -0.000000 0.192609 0.150726 -0.102245 -68.919357 -105.361896 -0.000000 0.169277 0.484197 -0.345814
